<?xml version="1.0" standalone="no"?>
<!DOCTYPE svg PUBLIC "-//W3C//DTD SVG 20010904//EN"
 "http://www.w3.org/TR/2001/REC-SVG-20010904/DTD/svg10.dtd">
<svg version="1.0" xmlns="http://www.w3.org/2000/svg"
 width="512.000000pt" height="512.000000pt" viewBox="0 0 512.000000 512.000000"
 preserveAspectRatio="xMidYMid meet">

<g transform="translate(0.000000,512.000000) scale(0.100000,-0.100000)"
fill="#000000" stroke="none">
<path d="M2496 4119 c-77 -11 -148 -45 -326 -156 -80 -49 -235 -143 -345 -208
-446 -263 -497 -300 -575 -419 -23 -36 -54 -100 -68 -143 -25 -77 -26 -82 -30
-443 -2 -201 1 -453 6 -560 8 -172 13 -203 35 -262 33 -87 92 -172 159 -233
29 -26 52 -52 50 -57 -1 -5 2 -7 7 -3 6 3 74 -34 153 -81 406 -247 778 -469
818 -489 101 -51 265 -58 384 -16 32 11 266 146 520 298 434 262 466 283 546
363 88 87 130 154 166 260 18 51 19 94 19 600 0 605 2 587 -68 724 -51 99
-142 191 -258 262 -178 109 -788 469 -856 507 -49 26 -99 43 -150 52 -87 16
-103 16 -187 4z m40 -73 c18 -14 19 -29 19 -309 0 -241 -3 -297 -14 -311 -8
-10 -60 -39 -116 -66 -72 -34 -113 -61 -142 -93 -42 -46 -90 -131 -112 -198
l-12 -36 -72 -6 c-198 -17 -287 -19 -287 -9 0 20 -64 85 -97 99 l-33 13 0 224
c0 218 1 224 23 247 27 30 665 416 727 440 55 22 90 23 116 5z m212 -4 c27
-11 184 -99 348 -197 164 -98 349 -207 409 -243 271 -159 335 -215 399 -346
61 -126 61 -130 61 -691 l0 -510 -25 -75 c-31 -95 -109 -211 -182 -270 -31
-25 -141 -96 -245 -159 -103 -62 -306 -185 -450 -273 -145 -88 -286 -168 -313
-179 -58 -22 -101 -24 -118 -7 -9 9 -12 106 -12 375 0 415 -7 384 94 422 198
74 289 177 320 362 6 32 12 39 52 54 64 24 157 114 191 183 22 47 27 71 27
137 1 69 -3 88 -28 140 -39 78 -107 145 -187 183 l-64 31 -13 65 c-32 171
-120 274 -292 341 -108 42 -100 15 -100 355 0 217 3 299 12 308 17 17 60 15
116 -6z m-1164 -544 c13 -18 16 -55 16 -199 l0 -177 -24 -6 c-39 -10 -94 -79
-101 -128 -9 -61 12 -105 74 -158 l51 -43 0 -202 0 -203 -30 -12 c-85 -35
-119 -148 -72 -236 13 -25 78 -84 92 -84 6 0 10 -80 10 -205 l0 -205 -24 -12
c-21 -9 -32 -6 -73 17 -78 46 -195 170 -230 245 -57 122 -58 129 -58 695 0
509 0 521 22 590 39 124 131 240 249 315 57 36 78 37 98 8z m1159 -192 c107
-52 198 -181 201 -283 1 -66 -8 -76 -199 -209 -101 -71 -148 -98 -170 -98 -24
0 -61 24 -165 105 -164 129 -176 143 -173 215 4 126 104 244 246 290 69 23
193 13 260 -20z m-557 -377 c16 -17 86 -73 156 -125 130 -97 153 -126 141
-176 -8 -34 -27 -52 -133 -133 -106 -81 -155 -130 -193 -191 -24 -39 -28 -41
-88 -47 -34 -4 -104 -7 -155 -7 l-93 0 -16 30 c-20 39 -51 67 -97 87 l-38 17
0 208 0 208 33 14 c38 15 84 66 93 102 9 33 29 36 275 42 83 2 86 1 115 -29z
m579 -453 c83 -62 159 -123 169 -135 12 -13 21 -41 24 -76 9 -110 -77 -233
-206 -297 -62 -31 -73 -33 -172 -33 -92 0 -112 3 -160 26 -108 51 -177 132
-200 234 -22 96 -1 124 214 299 93 76 125 96 150 96 24 0 64 -25 181 -114z
m-599 -340 c65 -122 144 -191 275 -241 42 -17 78 -38 94 -57 l25 -30 -2 -361
-3 -362 -38 -3 c-26 -2 -58 6 -100 26 -81 38 -695 407 -724 435 -22 21 -22 28
-23 256 l-1 233 48 23 c56 26 76 46 98 97 l15 37 87 4 c49 2 117 3 153 3 l65
-1 31 -59z"/>
<path d="M3515 3046 c-80 -35 -123 -134 -90 -211 21 -52 42 -74 90 -96 52 -24
99 -24 151 2 98 47 121 180 46 262 -46 51 -135 70 -197 43z"/>
<path d="M3495 2378 c-57 -34 -87 -89 -82 -155 7 -100 75 -163 175 -163 158 0
223 210 95 307 -50 38 -133 43 -188 11z"/>
</g>
</svg>
